<svg xmlns="http://www.w3.org/2000/svg" width="30.375" height="27" viewBox="0 0 30.375 27">
  <path id="Icon_awesome-map-marked-alt" data-name="Icon awesome-map-marked-alt" d="M15.188,0A6.644,6.644,0,0,0,8.543,6.645c0,2.967,4.343,8.374,6.006,10.337a.832.832,0,0,0,1.276,0c1.664-1.963,6.006-7.37,6.006-10.337A6.644,6.644,0,0,0,15.188,0Zm0,8.859A2.215,2.215,0,1,1,17.4,6.645,2.215,2.215,0,0,1,15.188,8.859ZM1.061,11.388A1.688,1.688,0,0,0,0,12.955v13.2a.844.844,0,0,0,1.157.784l7.281-3.314V11.334A15.97,15.97,0,0,1,7.317,8.886Zm14.126,7.579a2.52,2.52,0,0,1-1.925-.894c-1.037-1.223-2.139-2.617-3.137-4.046v9.6L20.25,27V14.027c-1,1.429-2.1,2.822-3.137,4.046A2.521,2.521,0,0,1,15.188,18.967ZM29.218,8.5l-7.281,3.314V27l7.376-2.95a1.687,1.687,0,0,0,1.061-1.567V9.282A.844.844,0,0,0,29.218,8.5Z" fill="#1b317d"/>
</svg>
